<svg version="1.2" xmlns="http://www.w3.org/2000/svg" viewBox="0 0 99 126" width="500" height="636">
	<title>Logo</title>
	<style>
		.s0 { fill: #226199; } 
	</style>
	<g>
		<path class="s0" d="m37.6 3.1c-12.5 3-26 14.1-31.6 26.1-7.7 16.5-5.6 34.4 6 52l4.4 6.7 6.6-6.2c3.6-3.4 8.7-7.3 11.3-8.5l4.8-2.4-4.4-2.9c-14.6-9.6-15.7-30-2.4-41.4 4.1-3.5 11.7-6.5 16.7-6.5 5.1 0 12.6 3 16.9 6.7 13.6 11.6 11.5 32.5-4.3 42.3l-2.9 1.8 5.3 2.7c2.9 1.5 7.9 5.3 11.2 8.4l5.9 5.8 4-5.9c13-19.1 14.9-36.6 5.8-54.8-5.6-11.4-16.5-20.4-28.4-23.5-6.4-1.6-18.7-1.8-24.9-0.4z"/>
		<path class="s0" d="m42.1 34.8c-4 2.1-7.1 7.3-7.1 11.8 0 6.4 7.5 13.4 14.5 13.4 4 0 9-3.2 11.5-7.2 7.1-11.6-6.6-24.6-18.9-18z"/>
		<path class="s0" d="m38.5 84.9c-4.2 1.8-8.9 6.1-12.4 10.9l-1.9 2.8 10.3 12.5c5.9 7.2 11.4 12.9 12.7 13.2 3.4 0.9 5.7-1.1 16.2-14 9.5-11.6 9.6-11.7 8-14.2-2.9-4.6-5.8-7.2-10.9-10.2-4.1-2.4-6.1-2.9-11.5-2.9-4.1 0-8 0.7-10.5 1.9z"/>
	</g>
</svg>