<?xml version="1.0" standalone="no"?>
<!DOCTYPE svg PUBLIC "-//W3C//DTD SVG 20010904//EN"
 "http://www.w3.org/TR/2001/REC-SVG-20010904/DTD/svg10.dtd">
<svg version="1.0" xmlns="http://www.w3.org/2000/svg"
 width="686.000000pt" height="126.000000pt" viewBox="0 0 686.000000 126.000000"
 preserveAspectRatio="xMidYMid meet">
<metadata>
Created by potrace 1.16, written by Peter Selinger 2001-2019
</metadata>
<g transform="translate(0.000000,126.000000) scale(0.100000,-0.100000)"
fill="#226199" stroke="none">
<path d="M376 1229 c-125 -30 -260 -141 -316 -261 -77 -165 -56 -344 60 -520
l44 -67 66 62 c36 34 87 73 113 85 l48 24 -44 29 c-146 96 -157 300 -24 414
41 35 117 65 167 65 51 0 126 -30 169 -67 136 -116 115 -325 -43 -423 l-29
-18 53 -27 c29 -15 79 -53 112 -84 l59 -58 40 59 c130 191 149 366 58 548 -56
114 -165 204 -284 235 -64 16 -187 18 -249 4z"/>
<path d="M3064 928 c-22 -10 -44 -47 -44 -72 0 -7 9 -25 21 -40 26 -33 79 -36
109 -6 30 30 27 83 -6 109 -29 23 -48 25 -80 9z"/>
<path d="M421 912 c-40 -21 -71 -73 -71 -118 0 -64 75 -134 145 -134 40 0 90
32 115 72 71 116 -66 246 -189 180z"/>
<path d="M5187 903 c-4 -3 -7 -163 -7 -355 l0 -348 65 0 65 0 0 355 0 355 -58
0 c-32 0 -62 -3 -65 -7z"/>
<path d="M1322 709 c-28 -7 -58 -25 -88 -53 -41 -39 -44 -46 -44 -93 0 -80 48
-124 165 -152 81 -19 105 -32 112 -59 15 -59 -102 -88 -153 -37 -21 21 -34 25
-86 25 -60 0 -60 0 -54 -26 19 -75 99 -124 202 -124 152 0 245 87 214 200 -14
51 -57 80 -160 110 -90 27 -120 44 -120 70 0 56 115 67 155 14 6 -8 36 -17 68
-20 55 -6 57 -6 57 16 0 36 -39 89 -80 110 -47 24 -131 32 -188 19z"/>
<path d="M1808 708 c-47 -12 -113 -69 -141 -122 -18 -34 -22 -57 -22 -137 0
-89 2 -99 30 -145 94 -151 326 -149 405 4 6 13 10 25 8 27 -2 2 -30 5 -62 6
-45 2 -60 -1 -67 -13 -15 -27 -73 -41 -113 -28 -44 14 -65 39 -73 84 l-6 36
178 0 177 0 -7 53 c-12 93 -28 130 -75 178 -63 63 -139 82 -232 57z m109 -98
c31 -11 63 -55 63 -89 0 -20 -5 -21 -105 -21 -88 0 -105 2 -105 15 0 28 30 74
58 89 33 18 50 19 89 6z"/>
<path d="M2384 706 c-17 -8 -43 -29 -57 -47 l-27 -34 0 43 0 43 -62 -3 -63 -3
-3 -252 -2 -253 69 0 70 0 3 170 3 170 31 31 c25 24 41 32 73 33 l41 1 0 57
c0 54 -2 58 -22 58 -13 -1 -37 -7 -54 -14z"/>
<path d="M3410 711 c-119 -39 -179 -127 -180 -261 0 -91 29 -161 85 -207 114
-95 319 -52 359 75 7 21 5 22 -58 22 -36 0 -66 -4 -66 -10 0 -5 -14 -17 -32
-26 -37 -19 -91 -13 -121 13 -19 17 -47 72 -47 93 0 6 61 10 175 10 l175 0 0
51 c0 29 -5 69 -12 90 -13 46 -68 113 -109 134 -34 18 -134 28 -169 16z m109
-105 c28 -15 51 -53 51 -86 0 -19 -8 -20 -105 -20 -116 0 -120 3 -90 60 28 53
90 73 144 46z"/>
<path d="M3976 710 c-16 -5 -42 -21 -57 -36 l-29 -28 0 32 0 32 -65 0 -65 0 0
-255 0 -255 65 0 65 0 0 165 c0 184 7 213 59 235 43 17 88 5 106 -30 12 -22
15 -68 15 -200 l0 -170 65 0 65 0 0 150 c0 170 12 220 61 245 42 22 67 18 100
-14 l29 -29 0 -176 0 -176 65 0 65 0 0 198 c0 168 -3 202 -18 232 -49 98 -192
116 -279 36 l-36 -33 -29 33 c-42 48 -112 64 -182 44z"/>
<path d="M4817 707 c-21 -6 -49 -23 -63 -36 l-24 -23 0 31 0 32 -62 -3 -63 -3
-3 -347 -2 -348 65 0 65 0 0 126 0 126 30 -25 c88 -74 223 -55 297 42 42 55
56 109 51 201 -6 107 -45 177 -119 216 -39 20 -128 26 -172 11z m93 -112 c43
-22 60 -63 60 -142 0 -103 -32 -142 -117 -143 -44 0 -56 4 -82 30 -34 34 -48
95 -36 157 9 51 30 82 68 98 42 19 71 18 107 0z"/>
<path d="M5539 705 c-54 -17 -114 -73 -140 -129 -22 -49 -25 -167 -7 -230 16
-54 90 -128 144 -144 113 -33 233 9 280 100 8 15 14 29 14 33 0 3 -28 5 -62 5
-49 0 -66 -4 -85 -22 -35 -33 -107 -29 -143 9 -16 15 -31 43 -35 61 l-7 32
176 0 176 0 0 43 c0 98 -49 191 -120 227 -53 27 -134 33 -191 15z m115 -95
c28 -10 66 -64 66 -92 0 -16 -12 -18 -105 -18 -104 0 -105 0 -105 24 0 28 34
74 64 86 29 12 50 12 80 0z"/>
<path d="M6060 705 c-58 -19 -115 -66 -142 -118 -18 -34 -22 -59 -23 -132 0
-81 3 -95 29 -142 45 -81 118 -123 216 -123 141 0 237 93 248 240 9 124 -39
220 -131 263 -50 24 -143 30 -197 12z m133 -106 c35 -16 58 -63 64 -128 11
-119 -58 -199 -149 -171 -130 38 -107 310 26 310 19 0 46 -5 59 -11z"/>
<path d="M6579 711 c-145 -30 -201 -182 -93 -255 20 -14 75 -35 121 -47 101
-27 127 -51 99 -94 -24 -36 -106 -36 -142 0 -21 21 -34 25 -86 25 l-60 0 7
-27 c20 -81 84 -118 205 -118 100 0 152 20 188 75 19 29 23 45 20 87 -7 80
-50 116 -182 149 -82 21 -111 41 -101 73 8 25 41 41 87 41 20 0 39 -9 58 -30
24 -26 35 -30 79 -30 45 0 51 2 51 21 0 84 -136 154 -251 130z"/>
<path d="M2492 697 c2 -8 41 -123 88 -256 l85 -242 69 3 70 3 87 250 c49 138
88 251 89 253 1 8 -130 0 -135 -8 -4 -6 -29 -86 -56 -178 -27 -92 -50 -171
-52 -176 -2 -5 -27 75 -57 177 l-54 187 -69 0 c-52 0 -68 -3 -65 -13z"/>
<path d="M3037 704 c-4 -4 -7 -119 -7 -256 l0 -248 70 0 70 0 -2 253 -3 252
-60 3 c-34 2 -64 0 -68 -4z"/>
<path d="M385 411 c-42 -18 -89 -61 -124 -109 l-19 -28 103 -125 c59 -72 114
-129 127 -132 34 -9 57 11 162 140 95 116 96 117 80 142 -29 46 -58 72 -109
102 -41 24 -61 29 -115 29 -41 0 -80 -7 -105 -19z"/>
</g>
</svg>
